<svg width="1080" height="446" viewBox="0 0 1080 446" fill="none" xmlns="http://www.w3.org/2000/svg">
<rect width="1080" height="446" fill="white"/>
<path d="M317.062 317.375C301.125 317.375 285.812 311.125 274.562 299.875C250.812 276.437 250.5 238 273.937 214.25L286.75 200.812C289.25 198.312 293 198.312 295.5 200.812C298 203.312 298 207.062 295.5 209.562L282.687 223C264.25 241.75 264.25 272.375 283.312 290.813C292.375 299.875 304.25 304.562 317.062 304.562H317.375C330.187 304.562 342.062 299.563 351.125 290.188L363.937 276.75C366.437 274.25 370.187 274.25 372.687 276.75C375.187 279.25 375.187 283 372.687 285.5L359.562 298.938C348.312 310.5 333 316.75 317.062 317.062C317.375 317.375 317.375 317.375 317.062 317.375ZM408.937 246.75C407.375 246.75 405.812 246.125 404.562 244.875C402.062 242.375 402.062 238.625 404.562 236.125L417.687 222.687C436.125 203.937 436.125 173.312 417.062 154.875C398.312 136.437 367.687 136.438 349.25 155.188L336.437 168.625C333.937 171.125 330.187 171.125 327.687 168.625C325.187 166.125 325.187 162.375 327.687 159.875L340.812 146.437C363.625 123 402.062 122.687 425.812 146.125C449.562 169.562 449.875 208 426.437 231.75L413.625 244.875C412.375 246.125 410.5 246.75 408.937 246.75Z" fill="#43484D"/>
<path d="M324.875 255.188C323.312 255.188 321.75 254.563 320.5 253.313C318 250.813 318 247.063 320.5 244.563L371.438 193C373.938 190.5 377.688 190.5 380.188 193C382.688 195.5 382.688 199.25 380.188 201.75L329.25 253.313C328 254.563 326.437 255.188 324.875 255.188Z" fill="#229BFF"/>
<path d="M402.092 329.086L407.989 302.549H392.089C391.914 302.55 391.742 302.51 391.587 302.433C391.432 302.357 391.299 302.246 391.2 302.111C391.101 301.976 391.039 301.82 391.019 301.658C390.999 301.495 391.022 301.33 391.085 301.178L402.106 274.531C402.336 273.975 402.74 273.498 403.266 273.161C403.791 272.825 404.413 272.645 405.049 272.646H422.478C422.704 272.645 422.926 272.695 423.125 272.793C423.324 272.891 423.495 273.033 423.623 273.207C423.75 273.381 423.83 273.581 423.855 273.791C423.881 274 423.851 274.212 423.769 274.408L417.416 289.683L434.459 289.757C434.558 289.757 434.656 289.783 434.74 289.833C434.825 289.882 434.892 289.953 434.936 290.037C434.98 290.121 434.997 290.214 434.986 290.307C434.976 290.399 434.938 290.487 434.876 290.561L402.51 329.27C402.476 329.309 402.43 329.335 402.378 329.346C402.327 329.357 402.273 329.351 402.225 329.33C402.177 329.309 402.138 329.274 402.114 329.23C402.09 329.185 402.082 329.135 402.092 329.086Z" fill="#FFF100"/>
<path d="M392.089 302.549H394.235L405.919 272.646H405.049C404.413 272.645 403.791 272.825 403.266 273.161C402.74 273.498 402.336 273.975 402.106 274.531L391.085 301.178C391.022 301.33 390.999 301.495 391.019 301.658C391.039 301.82 391.101 301.976 391.2 302.111C391.299 302.246 391.432 302.357 391.587 302.433C391.742 302.51 391.914 302.55 392.089 302.549Z" fill="white"/>
<path d="M434.593 289.612H431.974L403.234 324.416L402.227 328.935C402.216 328.984 402.224 329.035 402.248 329.079C402.273 329.124 402.312 329.16 402.361 329.181C402.41 329.202 402.464 329.206 402.517 329.195C402.569 329.183 402.615 329.155 402.648 329.116L435.011 290.416C435.072 290.342 435.11 290.254 435.121 290.162C435.132 290.069 435.114 289.975 435.071 289.892C435.027 289.808 434.959 289.737 434.875 289.688C434.79 289.638 434.693 289.612 434.593 289.612Z" fill="#F8B62D"/>
<path d="M398.666 283.498C398.553 283.498 398.442 283.473 398.343 283.424C398.243 283.375 398.157 283.304 398.094 283.217C398.03 283.13 397.99 283.03 397.977 282.926C397.965 282.821 397.98 282.715 398.021 282.617L399.318 279.479C399.388 279.324 399.519 279.201 399.684 279.135C399.849 279.069 400.035 279.066 400.203 279.127C400.37 279.187 400.506 279.307 400.581 279.459C400.656 279.612 400.665 279.786 400.605 279.944L399.294 283.085C399.245 283.204 399.159 283.307 399.047 283.381C398.935 283.454 398.803 283.495 398.666 283.498ZM402.327 330C402.191 330 402.057 329.972 401.934 329.919C401.743 329.837 401.588 329.696 401.494 329.52C401.4 329.344 401.372 329.143 401.416 328.951L407.141 303.195H392.089C391.801 303.195 391.517 303.13 391.262 303.004C391.007 302.878 390.789 302.696 390.627 302.473C390.464 302.25 390.363 301.994 390.331 301.726C390.299 301.458 390.337 301.186 390.443 300.935L396.482 286.329C396.512 286.247 396.56 286.173 396.623 286.109C396.685 286.045 396.76 285.994 396.844 285.957C396.928 285.921 397.018 285.901 397.111 285.899C397.203 285.896 397.295 285.91 397.381 285.942C397.467 285.973 397.546 286.02 397.612 286.08C397.678 286.14 397.731 286.212 397.767 286.291C397.804 286.37 397.822 286.456 397.823 286.542C397.823 286.629 397.804 286.714 397.769 286.794L391.73 301.41C391.708 301.464 391.699 301.522 391.705 301.579C391.712 301.637 391.732 301.692 391.766 301.74C391.8 301.789 391.846 301.829 391.9 301.857C391.953 301.886 392.014 301.902 392.075 301.904H408.838L403.162 327.44L407.348 322.437C407.402 322.366 407.471 322.307 407.55 322.261C407.63 322.216 407.718 322.187 407.81 322.174C407.902 322.162 407.996 322.167 408.086 322.19C408.176 322.212 408.26 322.251 408.333 322.305C408.406 322.358 408.467 322.425 408.512 322.501C408.557 322.577 408.585 322.661 408.595 322.748C408.604 322.834 408.595 322.921 408.567 323.005C408.54 323.088 408.495 323.165 408.434 323.231L403.055 329.668C402.969 329.771 402.858 329.855 402.732 329.913C402.606 329.97 402.467 330 402.327 330Z" fill="#231815"/>
<path d="M411.185 319.541C411.055 319.542 410.928 319.508 410.819 319.444C410.709 319.38 410.621 319.288 410.564 319.179C410.507 319.071 410.484 318.949 410.497 318.829C410.511 318.709 410.56 318.594 410.639 318.499L434.145 290.399L416.409 290.322L423.124 274.182C423.165 274.084 423.18 273.978 423.167 273.873C423.154 273.769 423.115 273.669 423.051 273.582C422.989 273.493 422.904 273.42 422.804 273.369C422.704 273.319 422.592 273.292 422.478 273.291H405.049C404.551 273.292 404.065 273.433 403.654 273.697C403.243 273.96 402.926 274.332 402.745 274.766L401.813 277.026C401.782 277.107 401.734 277.182 401.672 277.246C401.61 277.31 401.535 277.361 401.451 277.397C401.367 277.434 401.276 277.454 401.184 277.456C401.092 277.459 401 277.444 400.914 277.413C400.827 277.382 400.749 277.335 400.682 277.275C400.616 277.215 400.563 277.143 400.527 277.064C400.491 276.984 400.472 276.899 400.472 276.813C400.472 276.726 400.49 276.641 400.526 276.561L401.457 274.302C401.74 273.625 402.234 273.044 402.875 272.634C403.515 272.223 404.273 272.002 405.049 272H422.478C422.816 271.999 423.149 272.076 423.447 272.223C423.746 272.37 424.002 272.583 424.192 272.844C424.383 273.104 424.502 273.405 424.54 273.718C424.578 274.032 424.534 274.35 424.411 274.644L418.424 289.04L434.462 289.111C434.69 289.113 434.913 289.175 435.106 289.288C435.299 289.402 435.454 289.564 435.554 289.756C435.653 289.948 435.694 290.162 435.671 290.375C435.647 290.587 435.561 290.789 435.421 290.958L411.716 319.293C411.653 319.369 411.572 319.43 411.48 319.473C411.388 319.516 411.287 319.54 411.185 319.541Z" fill="#231815"/>
<path d="M550.558 241V204.636H572.362V208.543H554.961V220.83H570.728V224.736H554.961V241H550.558ZM587.361 241.639C585.633 241.639 584.064 241.314 582.656 240.663C581.247 240 580.128 239.047 579.3 237.804C578.471 236.549 578.057 235.034 578.057 233.259C578.057 231.696 578.365 230.429 578.98 229.459C579.596 228.476 580.418 227.707 581.448 227.151C582.478 226.594 583.614 226.18 584.857 225.908C586.112 225.624 587.373 225.399 588.639 225.233C590.296 225.02 591.64 224.86 592.67 224.754C593.711 224.635 594.469 224.44 594.942 224.168C595.428 223.895 595.67 223.422 595.67 222.747V222.605C595.67 220.853 595.191 219.492 594.232 218.521C593.285 217.551 591.847 217.065 589.918 217.065C587.917 217.065 586.349 217.503 585.212 218.379C584.076 219.255 583.277 220.19 582.815 221.185L578.838 219.764C579.548 218.107 580.495 216.817 581.679 215.893C582.875 214.958 584.177 214.307 585.585 213.94C587.006 213.562 588.402 213.372 589.776 213.372C590.652 213.372 591.658 213.479 592.794 213.692C593.942 213.893 595.049 214.313 596.114 214.952C597.192 215.592 598.085 216.556 598.795 217.847C599.506 219.137 599.861 220.865 599.861 223.031V241H595.67V237.307H595.457C595.173 237.899 594.7 238.532 594.037 239.207C593.374 239.881 592.492 240.455 591.391 240.929C590.29 241.402 588.947 241.639 587.361 241.639ZM588 237.875C589.657 237.875 591.054 237.549 592.19 236.898C593.339 236.247 594.203 235.407 594.783 234.377C595.375 233.347 595.67 232.264 595.67 231.128V227.293C595.493 227.506 595.102 227.701 594.499 227.879C593.907 228.044 593.22 228.192 592.439 228.322C591.67 228.441 590.918 228.547 590.184 228.642C589.462 228.725 588.876 228.796 588.426 228.855C587.337 228.997 586.319 229.228 585.372 229.548C584.437 229.855 583.679 230.323 583.099 230.95C582.531 231.566 582.247 232.406 582.247 233.472C582.247 234.928 582.786 236.028 583.863 236.774C584.952 237.508 586.331 237.875 588 237.875ZM626.827 219.835L623.063 220.901C622.826 220.273 622.477 219.664 622.015 219.072C621.566 218.468 620.95 217.971 620.169 217.58C619.388 217.19 618.387 216.994 617.168 216.994C615.499 216.994 614.108 217.379 612.996 218.148C611.895 218.906 611.344 219.871 611.344 221.043C611.344 222.084 611.723 222.907 612.481 223.511C613.238 224.114 614.422 224.617 616.032 225.02L620.08 226.014C622.519 226.606 624.336 227.512 625.531 228.731C626.727 229.938 627.324 231.495 627.324 233.401C627.324 234.963 626.875 236.36 625.975 237.591C625.087 238.822 623.844 239.793 622.246 240.503C620.648 241.213 618.79 241.568 616.671 241.568C613.889 241.568 611.587 240.964 609.764 239.757C607.941 238.55 606.787 236.786 606.302 234.466L610.279 233.472C610.658 234.939 611.374 236.04 612.427 236.774C613.493 237.508 614.884 237.875 616.6 237.875C618.553 237.875 620.104 237.461 621.252 236.632C622.412 235.792 622.992 234.786 622.992 233.614C622.992 232.667 622.661 231.874 621.998 231.234C621.335 230.583 620.317 230.098 618.944 229.778L614.398 228.713C611.901 228.121 610.066 227.204 608.894 225.961C607.734 224.706 607.154 223.138 607.154 221.256C607.154 219.717 607.586 218.356 608.45 217.172C609.326 215.988 610.516 215.059 612.019 214.384C613.534 213.71 615.251 213.372 617.168 213.372C619.867 213.372 621.986 213.964 623.525 215.148C625.075 216.331 626.176 217.894 626.827 219.835ZM645.493 213.727V217.278H631.359V213.727H645.493ZM635.479 207.193H639.669V233.188C639.669 234.371 639.841 235.259 640.184 235.851C640.539 236.431 640.989 236.821 641.533 237.023C642.09 237.212 642.676 237.307 643.291 237.307C643.753 237.307 644.132 237.283 644.428 237.236C644.723 237.177 644.96 237.129 645.138 237.094L645.99 240.858C645.706 240.964 645.309 241.071 644.8 241.178C644.291 241.296 643.646 241.355 642.865 241.355C641.681 241.355 640.521 241.101 639.385 240.592C638.26 240.083 637.325 239.307 636.58 238.266C635.846 237.224 635.479 235.91 635.479 234.324V207.193ZM666.285 204.636H670.688V230.631C670.688 232.951 670.262 234.922 669.41 236.543C668.558 238.165 667.356 239.396 665.805 240.237C664.255 241.077 662.426 241.497 660.319 241.497C658.33 241.497 656.561 241.136 655.01 240.414C653.459 239.68 652.24 238.638 651.352 237.289C650.464 235.94 650.021 234.336 650.021 232.477H654.353C654.353 233.507 654.607 234.407 655.116 235.176C655.637 235.934 656.348 236.526 657.247 236.952C658.147 237.378 659.171 237.591 660.319 237.591C661.585 237.591 662.663 237.325 663.55 236.792C664.438 236.259 665.113 235.478 665.575 234.448C666.048 233.406 666.285 232.134 666.285 230.631V204.636ZM696.132 229.849V213.727H700.322V241H696.132V236.384H695.848C695.209 237.768 694.214 238.946 692.865 239.917C691.516 240.876 689.811 241.355 687.751 241.355C686.047 241.355 684.532 240.982 683.206 240.237C681.88 239.479 680.839 238.343 680.081 236.827C679.323 235.3 678.945 233.377 678.945 231.057V213.727H683.135V230.773C683.135 232.761 683.691 234.348 684.804 235.531C685.929 236.715 687.361 237.307 689.101 237.307C690.143 237.307 691.202 237.04 692.279 236.508C693.368 235.975 694.28 235.158 695.013 234.058C695.759 232.957 696.132 231.554 696.132 229.849ZM707.997 241V213.727H712.046V217.989H712.401C712.969 216.533 713.886 215.402 715.153 214.597C716.419 213.781 717.941 213.372 719.716 213.372C721.515 213.372 723.013 213.781 724.208 214.597C725.416 215.402 726.357 216.533 727.031 217.989H727.316C728.014 216.58 729.061 215.461 730.458 214.633C731.855 213.792 733.53 213.372 735.483 213.372C737.922 213.372 739.916 214.136 741.467 215.663C743.017 217.178 743.793 219.539 743.793 222.747V241H739.602V222.747C739.602 220.735 739.052 219.297 737.951 218.433C736.85 217.568 735.554 217.136 734.063 217.136C732.145 217.136 730.66 217.716 729.606 218.876C728.552 220.025 728.026 221.481 728.026 223.244V241H723.764V222.321C723.764 220.77 723.261 219.522 722.255 218.575C721.249 217.616 719.953 217.136 718.367 217.136C717.278 217.136 716.26 217.426 715.313 218.006C714.378 218.586 713.62 219.391 713.04 220.421C712.472 221.439 712.188 222.617 712.188 223.955V241H707.997ZM751.454 251.227V213.727H755.503V218.06H756C756.308 217.586 756.734 216.982 757.278 216.249C757.835 215.503 758.628 214.84 759.657 214.26C760.699 213.668 762.108 213.372 763.883 213.372C766.18 213.372 768.204 213.946 769.956 215.094C771.708 216.243 773.075 217.87 774.057 219.977C775.04 222.084 775.531 224.57 775.531 227.435C775.531 230.323 775.04 232.826 774.057 234.945C773.075 237.052 771.714 238.686 769.974 239.846C768.233 240.994 766.227 241.568 763.954 241.568C762.202 241.568 760.8 241.278 759.746 240.698C758.693 240.106 757.882 239.437 757.314 238.692C756.746 237.934 756.308 237.307 756 236.81H755.645V251.227H751.454ZM755.574 227.364C755.574 229.423 755.876 231.24 756.479 232.815C757.083 234.377 757.965 235.602 759.125 236.49C760.285 237.366 761.705 237.804 763.386 237.804C765.138 237.804 766.6 237.342 767.772 236.419C768.956 235.484 769.843 234.229 770.435 232.655C771.039 231.069 771.341 229.305 771.341 227.364C771.341 225.446 771.045 223.718 770.453 222.179C769.873 220.628 768.991 219.403 767.807 218.504C766.635 217.592 765.162 217.136 763.386 217.136C761.682 217.136 760.249 217.568 759.089 218.433C757.929 219.285 757.053 220.48 756.461 222.019C755.87 223.546 755.574 225.328 755.574 227.364ZM784.977 241.284C784.101 241.284 783.349 240.97 782.722 240.343C782.095 239.716 781.781 238.964 781.781 238.088C781.781 237.212 782.095 236.46 782.722 235.833C783.349 235.206 784.101 234.892 784.977 234.892C785.853 234.892 786.605 235.206 787.232 235.833C787.859 236.46 788.173 237.212 788.173 238.088C788.173 238.668 788.025 239.201 787.729 239.686C787.445 240.171 787.06 240.562 786.575 240.858C786.102 241.142 785.569 241.284 784.977 241.284ZM795.693 213.727H799.883V242.989C799.883 244.67 799.593 246.125 799.013 247.357C798.445 248.588 797.581 249.54 796.421 250.215C795.272 250.89 793.822 251.227 792.07 251.227C791.928 251.227 791.786 251.227 791.644 251.227C791.502 251.227 791.36 251.227 791.218 251.227V247.321C791.36 247.321 791.49 247.321 791.609 247.321C791.727 247.321 791.857 247.321 791.999 247.321C793.278 247.321 794.213 246.942 794.805 246.185C795.397 245.439 795.693 244.374 795.693 242.989V213.727ZM797.752 209.182C796.936 209.182 796.231 208.904 795.639 208.347C795.059 207.791 794.769 207.122 794.769 206.341C794.769 205.56 795.059 204.891 795.639 204.335C796.231 203.778 796.936 203.5 797.752 203.5C798.569 203.5 799.267 203.778 799.847 204.335C800.439 204.891 800.735 205.56 800.735 206.341C800.735 207.122 800.439 207.791 799.847 208.347C799.267 208.904 798.569 209.182 797.752 209.182ZM826.876 219.835L823.112 220.901C822.875 220.273 822.526 219.664 822.064 219.072C821.614 218.468 820.999 217.971 820.218 217.58C819.436 217.19 818.436 216.994 817.217 216.994C815.548 216.994 814.157 217.379 813.044 218.148C811.944 218.906 811.393 219.871 811.393 221.043C811.393 222.084 811.772 222.907 812.529 223.511C813.287 224.114 814.471 224.617 816.081 225.02L820.129 226.014C822.567 226.606 824.384 227.512 825.58 228.731C826.775 229.938 827.373 231.495 827.373 233.401C827.373 234.963 826.923 236.36 826.024 237.591C825.136 238.822 823.893 239.793 822.295 240.503C820.697 241.213 818.839 241.568 816.72 241.568C813.938 241.568 811.636 240.964 809.813 239.757C807.99 238.55 806.836 236.786 806.35 234.466L810.328 233.472C810.707 234.939 811.423 236.04 812.476 236.774C813.542 237.508 814.932 237.875 816.649 237.875C818.602 237.875 820.153 237.461 821.301 236.632C822.461 235.792 823.041 234.786 823.041 233.614C823.041 232.667 822.709 231.874 822.047 231.234C821.384 230.583 820.366 230.098 818.993 229.778L814.447 228.713C811.949 228.121 810.115 227.204 808.943 225.961C807.783 224.706 807.203 223.138 807.203 221.256C807.203 219.717 807.635 218.356 808.499 217.172C809.375 215.988 810.565 215.059 812.068 214.384C813.583 213.71 815.299 213.372 817.217 213.372C819.916 213.372 822.035 213.964 823.574 215.148C825.124 216.331 826.225 217.894 826.876 219.835Z" fill="black"/>
</svg>
