<svg width="1080" height="446" viewBox="0 0 1080 446" fill="none" xmlns="http://www.w3.org/2000/svg">
<rect width="1080" height="446" fill="white"/>
<path d="M443.097 178.727V266H432.87L385.313 197.477H384.461V266H373.892V178.727H384.12L431.847 247.42H432.699V178.727H443.097Z" fill="#0047FF"/>
<path d="M472.488 266.682C469.335 266.682 466.614 265.986 464.327 264.594C462.055 263.188 460.3 261.227 459.065 258.713C457.843 256.185 457.232 253.244 457.232 249.892C457.232 246.54 457.843 243.585 459.065 241.028C460.3 238.457 462.019 236.455 464.221 235.02C466.437 233.571 469.022 232.847 471.977 232.847C473.681 232.847 475.364 233.131 477.026 233.699C478.688 234.267 480.201 235.19 481.565 236.469C482.928 237.733 484.015 239.409 484.825 241.497C485.634 243.585 486.039 246.156 486.039 249.21V251.341H460.812V246.994H480.925C480.925 245.148 480.556 243.5 479.817 242.051C479.093 240.602 478.056 239.459 476.707 238.621C475.371 237.783 473.795 237.364 471.977 237.364C469.974 237.364 468.241 237.861 466.778 238.855C465.329 239.835 464.214 241.114 463.433 242.69C462.651 244.267 462.261 245.957 462.261 247.761V250.659C462.261 253.131 462.687 255.226 463.539 256.945C464.406 258.649 465.606 259.949 467.14 260.844C468.674 261.724 470.457 262.165 472.488 262.165C473.809 262.165 475.002 261.98 476.067 261.611C477.147 261.227 478.077 260.659 478.859 259.906C479.64 259.139 480.244 258.187 480.67 257.051L485.528 258.415C485.016 260.062 484.157 261.511 482.95 262.761C481.742 263.997 480.251 264.963 478.475 265.659C476.7 266.341 474.704 266.682 472.488 266.682ZM501.103 266L491.131 233.273H496.415L503.489 258.33H503.83L510.819 233.273H516.188L523.092 258.244H523.433L530.506 233.273H535.79L525.819 266H520.876L513.717 240.858H513.205L506.046 266H501.103Z" fill="black"/>
<path d="M602.045 266V178.727H632.556C638.636 178.727 643.65 179.778 647.599 181.881C651.548 183.955 654.488 186.753 656.42 190.276C658.352 193.77 659.317 197.648 659.317 201.909C659.317 205.659 658.65 208.756 657.315 211.199C656.008 213.642 654.275 215.574 652.116 216.994C649.985 218.415 647.67 219.466 645.17 220.148V221C647.84 221.17 650.525 222.108 653.224 223.812C655.923 225.517 658.181 227.96 659.999 231.142C661.817 234.324 662.727 238.216 662.727 242.818C662.727 247.193 661.732 251.128 659.744 254.622C657.755 258.116 654.616 260.886 650.326 262.932C646.036 264.977 640.454 266 633.579 266H602.045ZM612.613 256.625H633.579C640.482 256.625 645.383 255.29 648.281 252.619C651.207 249.92 652.67 246.653 652.67 242.818C652.67 239.864 651.917 237.136 650.411 234.636C648.906 232.108 646.761 230.091 643.977 228.585C641.192 227.051 637.897 226.284 634.09 226.284H612.613V256.625ZM612.613 217.08H632.215C635.397 217.08 638.266 216.455 640.823 215.205C643.408 213.955 645.454 212.193 646.96 209.92C648.494 207.648 649.261 204.977 649.261 201.909C649.261 198.074 647.925 194.821 645.255 192.151C642.585 189.452 638.352 188.102 632.556 188.102H612.613V217.08Z" fill="#0047FF"/>
<path d="M674.653 266V233.273H679.681V266H674.653ZM677.21 227.818C676.23 227.818 675.385 227.484 674.674 226.817C673.978 226.149 673.63 225.347 673.63 224.409C673.63 223.472 673.978 222.669 674.674 222.001C675.385 221.334 676.23 221 677.21 221C678.19 221 679.028 221.334 679.724 222.001C680.434 222.669 680.789 223.472 680.789 224.409C680.789 225.347 680.434 226.149 679.724 226.817C679.028 227.484 678.19 227.818 677.21 227.818ZM693.92 246.312V266H688.891V233.273H693.749V238.386H694.175C694.942 236.724 696.107 235.389 697.67 234.381C699.232 233.358 701.249 232.847 703.721 232.847C705.937 232.847 707.876 233.301 709.538 234.21C711.2 235.105 712.492 236.469 713.415 238.301C714.339 240.119 714.8 242.42 714.8 245.205V266H709.772V245.545C709.772 242.974 709.104 240.972 707.769 239.537C706.434 238.088 704.602 237.364 702.272 237.364C700.667 237.364 699.232 237.712 697.968 238.408C696.718 239.104 695.731 240.119 695.006 241.455C694.282 242.79 693.92 244.409 693.92 246.312ZM737.199 278.955C734.77 278.955 732.682 278.642 730.935 278.017C729.188 277.406 727.732 276.597 726.567 275.588C725.417 274.594 724.5 273.528 723.819 272.392L727.824 269.58C728.279 270.176 728.854 270.858 729.55 271.625C730.246 272.406 731.198 273.081 732.405 273.649C733.627 274.232 735.225 274.523 737.199 274.523C739.841 274.523 742.022 273.884 743.74 272.605C745.459 271.327 746.319 269.324 746.319 266.597V259.949H745.892C745.523 260.545 744.998 261.284 744.316 262.165C743.648 263.031 742.682 263.805 741.418 264.487C740.168 265.155 738.478 265.489 736.347 265.489C733.705 265.489 731.333 264.864 729.23 263.614C727.142 262.364 725.488 260.545 724.266 258.159C723.059 255.773 722.455 252.875 722.455 249.466C722.455 246.114 723.044 243.195 724.223 240.709C725.402 238.209 727.043 236.277 729.145 234.913C731.248 233.536 733.676 232.847 736.432 232.847C738.563 232.847 740.253 233.202 741.503 233.912C742.767 234.608 743.733 235.403 744.401 236.298C745.083 237.179 745.608 237.903 745.978 238.472H746.489V233.273H751.347V266.938C751.347 269.75 750.708 272.037 749.429 273.798C748.165 275.574 746.461 276.874 744.316 277.697C742.185 278.536 739.813 278.955 737.199 278.955ZM737.029 260.972C739.046 260.972 740.75 260.51 742.142 259.587C743.534 258.663 744.593 257.335 745.317 255.602C746.042 253.869 746.404 251.795 746.404 249.381C746.404 247.023 746.049 244.942 745.338 243.138C744.628 241.334 743.577 239.92 742.185 238.898C740.793 237.875 739.074 237.364 737.029 237.364C734.898 237.364 733.123 237.903 731.702 238.983C730.296 240.062 729.238 241.511 728.527 243.33C727.831 245.148 727.483 247.165 727.483 249.381C727.483 251.653 727.838 253.663 728.549 255.411C729.273 257.143 730.338 258.507 731.745 259.501C733.165 260.482 734.926 260.972 737.029 260.972Z" fill="black"/>
</svg>
